# xmcd
#
# Track frame offsets:
#        150
#        10375
#        22800
#        35825
#        46712
#        57387
#        67950
#        79137
#        89662
#        100725
#        113300
#        124012
#        136187
#        147275
#        157575
#        168837
#        180400
#        191712
#        202775
#        213950
#
# Disc length: 2998 seconds
#
# Revision: 0
# Processed by: cddbd v1.5.1PL2 Copyright (c) Steve Scherf et al.
# Submitted via: ExactAudioCopy v0.95a5
#
DISCID=f80bb414
DTITLE=Smiley Lewis - Gumbo Blues (Disc-1) New Orleans Gumbo
DYEAR=1900
DGENRE=
TTITLE0=Tee-Nah-Nah
TTITLE1=Lowdown
TTITLE2=Slide Me Down
TTITLE3=Growing Old
TTITLE4=If You Ever Loved A Woman
TTITLE5=Dirty People
TTITLE6=Where Were You
TTITLE7=My Baby
TTITLE8=Sad Life
TTITLE9=Bee's Boogie
TTITLE10=Don't Jive Me
TTITLE11=My Baby Was Right
TTITLE12=The Bells Are Ringing
TTITLE13=Lillie Mae
TTITLE14=You're Gonna Miss Me
TTITLE15=Gipsy Blues
TTITLE16=You're Not The One
TTITLE17=Gumbo Blues
TTITLE18=Ain't Gonna Do It
TTITLE19=It's So Peaceful
EXTD=
EXTT0=
EXTT1=
EXTT2=
EXTT3=
EXTT4=
EXTT5=
EXTT6=
EXTT7=
EXTT8=
EXTT9=
EXTT10=
EXTT11=
EXTT12=
EXTT13=
EXTT14=
EXTT15=
EXTT16=
EXTT17=
EXTT18=
EXTT19=
PLAYORDER=
